PathFileType	4	(X/Y/Z)	Patient4_TMGait_0pt4_02_left_17.trc.trc
DataRate	CameraRate	NumFrames	NumMarkers	Units	OrigDataRate	OrigDataStartFrame	OrigNumFrames
71.428571428571	71.428571428571	5	33	mm	71.428571428571	124	       141
Frame#	Time	Sacral			L.Shoulder			Chest			R.Shoulder			Neck			R.ASIS			L.ASIS			R.Thigh.Superior			R.Thigh.Lateral			R.Thigh.Inferior			R.Patella			L.Thigh.Superior			L.Thigh.Lateral			L.Thigh.Inferior			L.Patella			L.Shank.Superior			L.Shank.Lateral			L.Shank.Inferior			R.Shank.Superior			R.Shank.Lateral			R.Shank.Inferior			R.Heel			R.Midfoot.Superior			R.Midfoot.Lateral			R.Toe			L.Heel			L.Midfoot.Lateral			L.Midfoot.Superior			L.Toe			L.Elbow			L.Wrist			R.Elbow			R.Wrist			
		X1	Y1	Z1	X2	Y2	Z2	X3	Y3	Z3	X4	Y4	Z4	X5	Y5	Z5	X6	Y6	Z6	X7	Y7	Z7	X8	Y8	Z8	X9	Y9	Z9	X10	Y10	Z10	X11	Y11	Z11	X12	Y12	Z12	X13	Y13	Z13	X14	Y14	Z14	X15	Y15	Z15	X16	Y16	Z16	X17	Y17	Z17	X18	Y18	Z18	X19	Y19	Z19	X20	Y20	Z20	X21	Y21	Z21	X22	Y22	Z22	X23	Y23	Z23	X24	Y24	Z24	X25	Y25	Z25	X26	Y26	Z26	X27	Y27	Z27	X28	Y28	Z28	X29	Y29	Z29	X30	Y30	Z30	X31	Y31	Z31	X32	Y32	Z32	X33	Y33	Z33	

124	24.432000000000	854.886710321143	1006.010611139339	515.979723362439	1032.695061828134	1418.606167212671	305.749775547503	1150.120954219607	1351.109154839563	456.978890214655	1090.439152049997	1434.729389650564	635.391757490734	1037.226241844881	1485.619514442223	454.711813635041	1088.397401749643	929.811268313251	612.521437165561	1052.237298132267	952.830716133895	339.557507324714	1089.511879799579	718.824026518674	584.877092832765	991.912303597796	623.904612250001	652.474889196966	1051.507340920871	558.511074360877	570.385622196071	1034.280386850855	472.107466445534	576.781661831604	1119.698429284480	763.483291286206	364.396657793988	1058.645558987225	637.908044180831	291.686734496562	1161.238090701287	575.484758106969	349.409836171264	1180.866868590859	508.636533492868	347.166643613860	1161.038694013354	436.507647752649	336.047367381488	1085.126441343688	311.774487028500	286.899874518698	1166.272064490949	206.814674852564	339.301104414447	992.775268965752	388.909542707883	586.949936055195	909.450569598848	299.472952908521	656.417524448700	927.498015266909	198.499806734146	592.333031214075	771.536789922562	44.383774407865	575.113520169879	943.787877585748	95.646244842848	602.712496302900	857.392099661965	36.938190483485	646.048434090099	1065.148667594083	41.298246390496	627.474180371933	1069.924243460176	39.995719946462	379.346668772051	1142.524170811116	38.049197000832	298.178300128910	1221.605634562232	105.096496733421	320.493493529808	1350.996305369112	61.397520672336	291.840296449753	921.650132660570	1080.268119082476	209.171637279346	953.649935874138	821.295052620108	176.726749074433	1197.630013261558	1108.386830883084	751.171260806629	1413.446875639638	1101.654833279859	621.260303454453	
125	24.446000000000	856.303155805330	1005.008435662158	513.117252824347	1033.327630378143	1417.527977186561	302.331706457584	1150.620207524584	1350.946834194301	454.048141525506	1089.994229851250	1434.583101882204	632.227042104813	1037.260827140974	1484.962280054474	451.225692472241	1090.001077165796	929.260981698066	610.587565067059	1054.463672203278	952.094223585776	337.673053679728	1090.728740359064	717.921654182512	583.093064489195	992.291547204849	623.253559086684	650.496270630755	1051.853717529546	557.407758832182	568.904791230867	1034.120427051803	470.504310057654	575.213254504313	1122.374060194152	761.935355450040	362.022001411048	1058.971057703962	636.283157840598	291.383513722296	1161.985855902923	573.996607234979	348.516800766384	1180.052302978456	506.196398245674	347.318847750433	1159.651776639917	433.792166751274	336.443242597638	1081.920804954938	310.096549714418	287.606043933579	1160.681033893544	203.993133492866	340.827383996423	991.296845044503	387.922076526501	585.560554361451	906.934351994014	299.712444088481	655.526441679204	923.534059967995	198.331365538712	591.773705640961	765.976039227631	45.294368954484	575.213232801412	938.502756432984	95.780904310355	602.674032578065	851.888388131754	37.303150516760	645.969005967776	1059.667263082242	40.993203150773	627.533300128697	1060.723657021447	39.503378027806	381.138623257236	1133.027723205515	36.892779413092	299.577757015125	1213.609993584604	101.930073679640	322.491782574310	1342.355356164261	55.753034329527	292.835668927122	924.171291661911	1078.605660168951	205.696685739379	957.266503707434	819.761048578021	173.182343817735	1193.757824851937	1106.507702734352	748.207137176461	1409.086211114138	1091.062862802510	617.206695693260	
126	24.460000000000	857.759303594141	1004.273281860631	510.240258223319	1033.958457637812	1416.686183839581	298.817398785322	1151.202074471325	1351.016039519682	450.956079033850	1089.754494481410	1434.690159373314	628.931787966655	1037.385082590219	1484.546632103502	447.615834738512	1091.682739150381	928.915180009778	608.360812478933	1056.602241825403	951.727475773055	335.549661228685	1092.094150581743	717.243201547417	581.042075341612	993.021457253358	622.794886127230	648.422295678997	1052.523068838565	556.503799379508	567.274366005071	1034.455033364155	468.975284601525	573.694897485871	1125.074452515971	760.939313591209	359.739053427991	1060.083307043526	635.328372232591	290.645499662311	1163.108391766559	573.027217243703	347.711800876206	1179.733758195468	504.330483493505	347.355092575808	1158.820929570731	431.656332924624	336.608136287478	1079.631790773392	308.953133610158	287.643308251319	1155.826146457021	201.756284598178	341.939038591283	990.168923756962	387.095912178862	584.202401581152	904.678651465435	300.224244811558	654.651844424405	919.791752066793	198.408841458582	591.276839551161	760.468778294150	46.685286337165	575.369055091178	933.407408785333	96.000371170035	602.717018313008	846.446569584125	37.879454735775	645.914579424831	1054.251077244199	40.621996726011	627.596357055949	1052.443773619084	39.136756573319	382.263561764288	1124.562234431279	36.142742190319	300.424917268167	1206.310598029666	99.584090811669	323.975590441563	1334.596896526288	51.455121404355	293.499559035257	926.906148849083	1077.106892288494	202.120874036096	961.412955305977	818.431158227417	169.453236747583	1189.190379340704	1104.699510897814	745.517633647415	1403.853964817360	1079.211828702882	613.899475148398	
127	24.474000000000	859.237559780444	1003.844382951440	507.341102203964	1034.585553372648	1416.141410581145	295.245600624514	1151.862334366801	1351.323687404710	447.722836431871	1089.753122680082	1435.063876513648	625.527421719344	1037.618409381262	1484.404456610204	443.924272379858	1093.380924128003	928.823853002959	605.813861202820	1058.604213584677	951.731355191478	333.136823544589	1093.585203647003	716.842098544436	578.753486969254	994.142102770018	622.559169420761	646.289840993366	1053.603880769229	555.846058725930	565.537845203549	1035.406651988916	467.549271807108	572.333524591795	1127.688656304127	760.518667322779	357.573144942253	1061.866410892806	635.003027361740	289.480165055507	1164.483970049223	572.516082816523	346.925624202812	1179.809248226537	503.008841019519	347.221869973807	1158.438669146968	430.082891037870	336.533158508872	1078.149868484784	308.307274355744	287.083501777198	1151.681326446314	200.112978290985	342.653404720696	989.498539954278	386.454237317418	582.954793672576	902.743895518906	301.063377455042	653.832441986323	916.342400422391	198.780959843648	590.890922195520	755.054076191475	48.671164256432	575.584908538049	928.549838173641	96.317374657093	602.864904449105	841.083272284280	38.724573214509	645.895770480984	1048.893128821138	40.195577933908	627.661687705448	1045.158956934957	38.903370813380	382.807589704001	1117.190119615655	35.748215205632	300.806574161252	1199.767906369811	98.030064336723	324.961199849218	1327.764223738280	48.458946716160	293.871207641223	929.818789565357	1075.853631024823	198.463167904692	966.091382228201	817.395505526064	165.586121849608	1184.022311758953	1103.026496640242	743.031977340067	1397.720734261059	1066.089245634969	611.433377459687	
128	24.488000000000	860.721061955274	1003.730431497762	504.384799102853	1035.208357677079	1415.931169060340	291.643391850076	1152.587192955139	1351.865638186792	444.369347357073	1089.984521516562	1435.696021312266	622.033366488126	1037.965017480293	1484.545261144360	440.185035098312	1095.038459942934	929.016699686412	602.936412393910	1060.456967272587	952.073709818702	330.402889619465	1095.198325090449	716.753401475013	576.268874770138	995.705352884989	622.555091572510	644.134378900651	1055.211427547913	555.462012174380	563.745941209593	1037.113130107999	466.243114046335	571.228315318058	1130.135466767629	760.621743194148	355.505655963103	1064.097159746064	635.186853459264	287.947316260202	1165.948591561618	572.341859417178	346.077553183516	1180.118452674447	502.134153625472	346.895504099822	1158.326977382686	428.989126540236	336.240216562435	1077.240211684103	308.069448404663	286.074446831400	1148.106086782546	199.001047881918	343.032242300691	989.414460480885	386.006334604168	581.892006368480	901.211209756734	302.277462444485	653.098274974923	913.271626199810	199.489885177733	590.658932161688	749.789558757830	51.366900084278	575.858047970001	923.979787140975	96.742692500555	603.131916770805	835.821986569755	39.903976242770	645.919219341754	1043.578299418421	39.731126958801	627.725988503999	1038.775831734167	38.795612100867	382.901675249312	1110.796644550579	35.632720119114	300.839955329681	1193.908684398179	97.154086580431	325.518758734806	1321.751100411944	46.573510790521	294.008698015654	932.862016107870	1074.909207276973	194.725890992065	971.314510909598	816.733465519314	161.621657056795	1178.350556478800	1101.544466644335	740.659073175962	1390.625951567697	1051.733020678983	609.894294312157	
